<svg width="19" height="20" viewBox="0 0 19 20" fill="none" xmlns="http://www.w3.org/2000/svg">
<path fill-rule="evenodd" clip-rule="evenodd" d="M12.6668 10C12.6668 10.19 12.6058 10.3792 12.4831 10.5333L8.52476 15.5333C8.2453 15.8867 7.74576 15.935 7.41009 15.64C7.07442 15.3458 7.0293 14.8208 7.30876 14.4667L10.8523 9.99083L7.43621 5.5225C7.1623 5.16417 7.21613 4.63917 7.55655 4.35083C7.89696 4.0625 8.39492 4.11917 8.66963 4.4775L12.4918 9.4775C12.6082 9.63 12.6668 9.815 12.6668 10Z" fill="#8F8F8F"/>
<mask id="mask0_104_838" style="mask-type:luminance" maskUnits="userSpaceOnUse" x="7" y="4" width="6" height="12">
<path fill-rule="evenodd" clip-rule="evenodd" d="M12.6668 10C12.6668 10.19 12.6058 10.3792 12.4831 10.5333L8.52476 15.5333C8.2453 15.8867 7.74576 15.935 7.41009 15.64C7.07442 15.3458 7.0293 14.8208 7.30876 14.4667L10.8523 9.99083L7.43621 5.5225C7.1623 5.16417 7.21613 4.63917 7.55655 4.35083C7.89696 4.0625 8.39492 4.11917 8.66963 4.4775L12.4918 9.4775C12.6082 9.63 12.6668 9.815 12.6668 10Z" fill="white"/>
</mask>
<g mask="url(#mask0_104_838)">
<rect y="20" width="20" height="19" transform="rotate(-90 0 20)" fill="#8F8F8F"/>
</g>
</svg>
