<svg width="20" height="21" viewBox="0 0 20 21" fill="none" xmlns="http://www.w3.org/2000/svg">
<path fill-rule="evenodd" clip-rule="evenodd" d="M10 13.6666C9.81001 13.6666 9.62084 13.6024 9.46667 13.4733L4.46667 9.30659C4.11334 9.01243 4.06501 8.48659 4.36001 8.13326C4.65417 7.77993 5.17917 7.73243 5.53334 8.02659L10.0092 11.7566L14.4775 8.16076C14.8358 7.87243 15.3608 7.92909 15.6492 8.28743C15.9375 8.64576 15.8808 9.16993 15.5225 9.45909L10.5225 13.4824C10.37 13.6049 10.185 13.6666 10 13.6666Z" fill="#8F8F8F"/>
<mask id="mask0_101_810" style="mask-type:luminance" maskUnits="userSpaceOnUse" x="4" y="7" width="12" height="7">
<path fill-rule="evenodd" clip-rule="evenodd" d="M10 13.6666C9.81001 13.6666 9.62084 13.6024 9.46667 13.4733L4.46667 9.30659C4.11334 9.01243 4.06501 8.48659 4.36001 8.13326C4.65417 7.77993 5.17917 7.73243 5.53334 8.02659L10.0092 11.7566L14.4775 8.16076C14.8358 7.87243 15.3608 7.92909 15.6492 8.28743C15.9375 8.64576 15.8808 9.16993 15.5225 9.45909L10.5225 13.4824C10.37 13.6049 10.185 13.6666 10 13.6666Z" fill="white"/>
</mask>
<g mask="url(#mask0_101_810)">
<rect y="0.333252" width="20" height="20" fill="#8F8F8F"/>
</g>
</svg>
