<svg width="18" height="13" viewBox="0 0 18 13" fill="none" xmlns="http://www.w3.org/2000/svg">
<path fill-rule="evenodd" clip-rule="evenodd" d="M2.025 12.5C1.68685 12.5 1.36255 12.3645 1.12344 12.1234C0.88433 11.8823 0.75 11.5553 0.75 11.2143V1.78571C0.75 1.44472 0.88433 1.1177 1.12344 0.876577C1.36255 0.635459 1.68685 0.5 2.025 0.5H16.475C16.8132 0.5 17.1375 0.635459 17.3766 0.876577C17.6157 1.1177 17.75 1.44472 17.75 1.78571V11.2143C17.75 11.5553 17.6157 11.8823 17.3766 12.1234C17.1375 12.3645 16.8132 12.5 16.475 12.5H2.025ZM1.6 1.78571C1.6 1.67205 1.64478 1.56304 1.72448 1.48267C1.80418 1.4023 1.91228 1.35714 2.025 1.35714H16.475C16.5877 1.35714 16.6958 1.4023 16.7755 1.48267C16.8552 1.56304 16.9 1.67205 16.9 1.78571V3.07143H1.6V1.78571ZM2.025 11.6429C1.91228 11.6429 1.80418 11.5977 1.72448 11.5173C1.64478 11.437 1.6 11.328 1.6 11.2143V6.5H16.9V11.2143C16.9 11.328 16.8552 11.437 16.7755 11.5173C16.6958 11.5977 16.5877 11.6429 16.475 11.6429H2.025Z" fill="#8F8F8F"/>
</svg>
