<svg width="19" height="18" viewBox="0 0 19 18" fill="none" xmlns="http://www.w3.org/2000/svg">
<path d="M10.6769 8.55544H7.26379M8.5061 4.97236V3.76929M10.5199 4.97236V3.76929M8.5061 14.2308V12.7924M10.5199 14.2308V12.7924M10.6507 8.55544C10.8882 8.55891 11.124 8.51513 11.3443 8.42665C11.5647 8.33817 11.7653 8.20675 11.9345 8.04005C12.1036 7.87334 12.2379 7.67467 12.3296 7.45559C12.4212 7.23651 12.4684 7.00139 12.4684 6.7639C12.4684 6.28876 12.2797 5.83307 11.9437 5.49709C11.6077 5.16112 11.152 4.97236 10.6769 4.97236H7.91764C7.74423 4.97236 7.57792 5.04125 7.4553 5.16387C7.33268 5.28649 7.26379 5.4528 7.26379 5.62621V12.1647C7.26379 12.3381 7.33268 12.5044 7.4553 12.627C7.57792 12.7496 7.74423 12.8185 7.91764 12.8185H10.6507C11.2126 12.8185 11.7514 12.5953 12.1487 12.198C12.546 11.8007 12.7692 11.2619 12.7692 10.7001C12.7692 10.1382 12.546 9.59937 12.1487 9.20208C11.7514 8.80479 11.2126 8.58159 10.6507 8.58159V8.55544Z" stroke="black" stroke-linecap="round" stroke-linejoin="round"/>
<path d="M9.5 17.5C14.1944 17.5 18 13.6944 18 9C18 4.30558 14.1944 0.5 9.5 0.5C4.80558 0.5 1 4.30558 1 9C1 13.6944 4.80558 17.5 9.5 17.5Z" stroke="black" stroke-linecap="round" stroke-linejoin="round"/>
</svg>
