<svg width="17" height="17" viewBox="0 0 17 17" fill="none" xmlns="http://www.w3.org/2000/svg">
<path d="M14.3438 14.7422H5.84375C5.73808 14.7422 5.63673 14.7002 5.56201 14.6255C5.48729 14.5508 5.44531 14.4494 5.44531 14.3438V11.5547H2.65625C2.55058 11.5547 2.44923 11.5127 2.37451 11.438C2.29979 11.3633 2.25781 11.2619 2.25781 11.1562V2.65625C2.25781 2.55058 2.29979 2.44923 2.37451 2.37451C2.44923 2.29979 2.55058 2.25781 2.65625 2.25781H11.1562C11.2619 2.25781 11.3633 2.29979 11.438 2.37451C11.5127 2.44923 11.5547 2.55058 11.5547 2.65625V5.44531H14.3438C14.4494 5.44531 14.5508 5.48729 14.6255 5.56201C14.7002 5.63673 14.7422 5.73808 14.7422 5.84375V14.3438C14.7422 14.4494 14.7002 14.5508 14.6255 14.6255C14.5508 14.7002 14.4494 14.7422 14.3438 14.7422ZM10.7578 3.05469H3.05469V10.7578H10.7578V3.05469ZM13.9453 6.24219H11.5547V11.1562C11.5547 11.2619 11.5127 11.3633 11.438 11.438C11.3633 11.5127 11.2619 11.5547 11.1562 11.5547H6.24219V13.9453H13.9453V6.24219Z" fill="#171717"/>
</svg>
