<svg width="34" height="34" viewBox="0 0 34 34" fill="none" xmlns="http://www.w3.org/2000/svg">
<path d="M7.375 29.375H26.625C28.1438 29.375 29.375 28.1438 29.375 26.625V7.375C29.375 5.85622 28.1438 4.625 26.625 4.625H7.375C5.85622 4.625 4.625 5.85622 4.625 7.375V26.625C4.625 28.1438 5.85622 29.375 7.375 29.375ZM7.375 29.375L22.5 14.25L29.375 21.125M14.25 12.1875C14.25 13.3266 13.3266 14.25 12.1875 14.25C11.0484 14.25 10.125 13.3266 10.125 12.1875C10.125 11.0484 11.0484 10.125 12.1875 10.125C13.3266 10.125 14.25 11.0484 14.25 12.1875Z" stroke="#DADADA" stroke-width="2" stroke-linecap="round" stroke-linejoin="round"/>
</svg>
