<svg width="16" height="15" viewBox="0 0 16 15" fill="none" xmlns="http://www.w3.org/2000/svg">
<path d="M4.49811 8C4.77425 8 4.99811 7.77614 4.99811 7.5C4.99811 7.22386 4.77425 7 4.49811 7C4.22197 7 3.99811 7.22386 3.99811 7.5C3.99811 7.77614 4.22197 8 4.49811 8Z" stroke="#171717" stroke-linecap="round" stroke-linejoin="round"/>
<path d="M7.74811 8C8.02425 8 8.24811 7.77614 8.24811 7.5C8.24811 7.22386 8.02425 7 7.74811 7C7.47197 7 7.24811 7.22386 7.24811 7.5C7.24811 7.77614 7.47197 8 7.74811 8Z" stroke="#171717" stroke-linecap="round" stroke-linejoin="round"/>
<path d="M10.9981 8C11.2743 8 11.4981 7.77614 11.4981 7.5C11.4981 7.22386 11.2743 7 10.9981 7C10.722 7 10.4981 7.22386 10.4981 7.5C10.4981 7.77614 10.722 8 10.9981 8Z" stroke="#171717" stroke-linecap="round" stroke-linejoin="round"/>
<path d="M7.99811 1C6.82235 1.00037 5.6687 1.31964 4.66005 1.92381C3.6514 2.52799 2.8255 3.39444 2.27034 4.43088C1.71518 5.46732 1.45154 6.63493 1.5075 7.80936C1.56346 8.98378 1.93692 10.121 2.58811 11.1L1.49811 14L5.14811 13.34C6.02702 13.7695 6.99153 13.9951 7.96975 13.9999C8.94798 14.0048 9.91468 13.7888 10.7978 13.368C11.6809 12.9472 12.4577 12.3325 13.0702 11.5698C13.6827 10.807 14.1151 9.91586 14.3352 8.96271C14.5554 8.00957 14.5575 7.01903 14.3415 6.06493C14.1256 5.11083 13.697 4.21779 13.0879 3.45237C12.4787 2.68694 11.7046 2.06889 10.8234 1.64427C9.94209 1.21965 8.97634 0.999424 7.99811 1Z" stroke="#171717" stroke-linecap="round" stroke-linejoin="round"/>
</svg>
