<svg width="16" height="15" viewBox="0 0 16 15" fill="none" xmlns="http://www.w3.org/2000/svg">
<path d="M13.9327 0.5H1.81731C1.33533 0.5 0.873088 0.684375 0.532277 1.01256C0.191466 1.34075 0 1.78587 0 2.25V10.4167C0 10.8808 0.191466 11.3259 0.532277 11.6541C0.873088 11.9823 1.33533 12.1667 1.81731 12.1667H13.9327C14.4147 12.1667 14.8769 11.9823 15.2177 11.6541C15.5585 11.3259 15.75 10.8808 15.75 10.4167V2.25C15.75 1.78587 15.5585 1.34075 15.2177 1.01256C14.8769 0.684375 14.4147 0.5 13.9327 0.5ZM14.5385 10.4167C14.5385 10.5714 14.4746 10.7197 14.361 10.8291C14.2474 10.9385 14.0934 11 13.9327 11H1.81731C1.65665 11 1.50257 10.9385 1.38896 10.8291C1.27536 10.7197 1.21154 10.5714 1.21154 10.4167V2.25C1.21154 2.09529 1.27536 1.94692 1.38896 1.83752C1.50257 1.72812 1.65665 1.66667 1.81731 1.66667H13.9327C14.0934 1.66667 14.2474 1.72812 14.361 1.83752C14.4746 1.94692 14.5385 2.09529 14.5385 2.25V10.4167ZM10.9038 13.9167C10.9038 14.0714 10.84 14.2197 10.7264 14.3291C10.6128 14.4385 10.4587 14.5 10.2981 14.5H5.45192C5.29126 14.5 5.13718 14.4385 5.02358 14.3291C4.90998 14.2197 4.84615 14.0714 4.84615 13.9167C4.84615 13.762 4.90998 13.6136 5.02358 13.5042C5.13718 13.3948 5.29126 13.3333 5.45192 13.3333H10.2981C10.4587 13.3333 10.6128 13.3948 10.7264 13.5042C10.84 13.6136 10.9038 13.762 10.9038 13.9167Z" fill="#8F8F8F"/>
</svg>
