<svg width="19" height="20" viewBox="0 0 19 20" fill="none" xmlns="http://www.w3.org/2000/svg">
<path d="M17.1347 5.647C16.9337 5.42713 16.704 5.2354 16.4517 5.077C16.5667 4.46296 16.5407 3.8308 16.3756 3.22828C16.2105 2.62577 15.9107 2.06864 15.4987 1.599C14.5607 0.539 12.9227 0 10.6297 0H4.74569C4.08569 0.002 3.52569 0.481 3.42169 1.132L0.968688 16.722C0.944724 16.8663 0.952475 17.014 0.991401 17.155C1.03033 17.296 1.0995 17.4268 1.19409 17.5383C1.28869 17.6499 1.40645 17.7395 1.53919 17.8009C1.67192 17.8623 1.81643 17.8941 1.96269 17.894H5.01069L4.85069 18.908C4.82949 19.0426 4.83765 19.1801 4.8746 19.3113C4.91154 19.4424 4.9764 19.564 5.06474 19.6677C5.15307 19.7714 5.26278 19.8548 5.38636 19.9122C5.50994 19.9695 5.64445 19.9995 5.78069 20H8.84469C9.13745 20.0012 9.42104 19.8979 9.64448 19.7088C9.86792 19.5196 10.0166 19.2569 10.0637 18.968L10.6697 15.141L10.7107 14.924C10.7189 14.8678 10.747 14.8165 10.79 14.7794C10.833 14.7423 10.8879 14.7219 10.9447 14.722H11.4027C15.0317 14.722 17.2057 13.002 17.8647 9.61C18.0611 8.93839 18.0975 8.23011 17.9709 7.54191C17.8443 6.85372 17.5583 6.20474 17.1357 5.647H17.1347ZM5.37169 15.587L5.16569 16.893L1.95569 16.883L4.41069 1.283C4.42376 1.2037 4.46467 1.13166 4.52606 1.0798C4.58746 1.02793 4.66532 0.999642 4.74569 1H10.6297C12.6247 1 14.0097 1.424 14.7467 2.26C15.4487 3.085 15.7017 4.202 15.4237 5.25H15.4257C15.4089 5.35898 15.3902 5.46766 15.3697 5.576L15.3687 5.579C14.7187 8.926 12.6477 10.554 9.03569 10.554H7.30769C6.98761 10.5533 6.67793 10.6676 6.43508 10.8761C6.19224 11.0847 6.0324 11.3735 5.98469 11.69L5.37169 15.586V15.587ZM16.8817 9.419C16.3187 12.315 14.5267 13.722 11.4017 13.722H10.9437C10.6508 13.7204 10.367 13.8235 10.1435 14.0127C9.91996 14.202 9.77143 14.4649 9.72469 14.754L9.10969 18.627L9.07769 18.798C9.06929 18.8543 9.04092 18.9056 8.99778 18.9427C8.95463 18.9798 8.89958 19.0001 8.84269 19L5.83769 19.065L6.44269 15.216L6.97669 11.846H6.97269V11.844C6.98464 11.7636 7.025 11.6901 7.08646 11.6369C7.14792 11.5837 7.2264 11.5543 7.30769 11.554H9.03569C12.9957 11.554 15.4257 9.747 16.2627 6.179C16.3047 6.22 16.3447 6.262 16.3827 6.305C17.0327 7.206 17.2177 8.361 16.8817 9.419Z" fill="white"/>
</svg>
