<svg width="13" height="13" viewBox="0 0 13 13" fill="none" xmlns="http://www.w3.org/2000/svg">
<path d="M2.4375 3.65625H10.5625C10.9935 3.65625 11.4068 3.82745 11.7115 4.1322C12.0163 4.43695 12.1875 4.85027 12.1875 5.28125V7.71875C12.1875 8.14973 12.0163 8.56305 11.7115 8.8678C11.4068 9.17254 10.9935 9.34375 10.5625 9.34375H2.4375C2.00652 9.34375 1.5932 9.17254 1.28845 8.8678C0.983705 8.56305 0.8125 8.14973 0.8125 7.71875V5.28125C0.8125 4.85027 0.983705 4.43695 1.28845 4.1322C1.5932 3.82745 2.00652 3.65625 2.4375 3.65625ZM2.4375 4.46875C2.22201 4.46875 2.01535 4.55435 1.86298 4.70673C1.7106 4.8591 1.625 5.06576 1.625 5.28125V7.71875C1.625 7.93424 1.7106 8.1409 1.86298 8.29327C2.01535 8.44565 2.22201 8.53125 2.4375 8.53125H10.5625C10.778 8.53125 10.9847 8.44565 11.137 8.29327C11.2894 8.1409 11.375 7.93424 11.375 7.71875V5.28125C11.375 5.06576 11.2894 4.8591 11.137 4.70673C10.9847 4.55435 10.778 4.46875 10.5625 4.46875H2.4375ZM0.8125 1.625C0.8125 1.51726 0.855301 1.41392 0.931488 1.33774C1.00767 1.26155 1.11101 1.21875 1.21875 1.21875H11.7812C11.889 1.21875 11.9923 1.26155 12.0685 1.33774C12.1447 1.41392 12.1875 1.51726 12.1875 1.625C12.1875 1.73274 12.1447 1.83608 12.0685 1.91226C11.9923 1.98845 11.889 2.03125 11.7812 2.03125H1.21875C1.11101 2.03125 1.00767 1.98845 0.931488 1.91226C0.855301 1.83608 0.8125 1.73274 0.8125 1.625ZM0.8125 11.375C0.8125 11.2673 0.855301 11.1639 0.931488 11.0877C1.00767 11.0116 1.11101 10.9688 1.21875 10.9688H11.7812C11.889 10.9688 11.9923 11.0116 12.0685 11.0877C12.1447 11.1639 12.1875 11.2673 12.1875 11.375C12.1875 11.4827 12.1447 11.5861 12.0685 11.6623C11.9923 11.7384 11.889 11.7812 11.7812 11.7812H1.21875C1.11101 11.7812 1.00767 11.7384 0.931488 11.6623C0.855301 11.5861 0.8125 11.4827 0.8125 11.375Z" fill="#171717"/>
</svg>
