<svg width="19" height="14" viewBox="0 0 19 14" fill="none" xmlns="http://www.w3.org/2000/svg">
<path d="M1.40159 0.419922H17.5985C17.9117 0.419922 18.2121 0.544351 18.4336 0.765836C18.6551 0.987322 18.7795 1.28772 18.7795 1.60095V12.3989C18.7795 12.7121 18.6551 13.0125 18.4336 13.234C18.2121 13.4555 17.9117 13.5799 17.5985 13.5799H1.40159C1.08837 13.5799 0.787966 13.4555 0.566481 13.234C0.344995 13.0125 0.220566 12.7121 0.220566 12.3989V1.60095C0.220566 1.28772 0.344995 0.987322 0.566481 0.765836C0.787966 0.544351 1.08837 0.419922 1.40159 0.419922ZM17.5985 1.43223H1.40159C1.35685 1.43223 1.31393 1.45001 1.28229 1.48165C1.25065 1.51329 1.23287 1.5562 1.23287 1.60095V3.79428H17.7672V1.60095C17.7672 1.5562 17.7495 1.51329 17.7178 1.48165C17.6862 1.45001 17.6433 1.43223 17.5985 1.43223ZM1.40159 12.5676H17.5985C17.6433 12.5676 17.6862 12.5498 17.7178 12.5182C17.7495 12.4866 17.7672 12.4436 17.7672 12.3989V4.80659H1.23287V12.3989C1.23287 12.4436 1.25065 12.4866 1.28229 12.5182C1.31393 12.5498 1.35685 12.5676 1.40159 12.5676ZM2.92005 10.3743C2.92005 10.5085 2.97338 10.6373 3.0683 10.7322C3.16322 10.8271 3.29197 10.8804 3.42621 10.8804H6.12569C6.25994 10.8804 6.38868 10.8271 6.4836 10.7322C6.57852 10.6373 6.63185 10.5085 6.63185 10.3743C6.63185 10.24 6.57852 10.1113 6.4836 10.0164C6.38868 9.92145 6.25994 9.86813 6.12569 9.86813H3.42621C3.29197 9.86813 3.16322 9.92145 3.0683 10.0164C2.97338 10.1113 2.92005 10.24 2.92005 10.3743ZM8.31903 10.3743C8.31903 10.5085 8.37235 10.6373 8.46728 10.7322C8.5622 10.8271 8.69094 10.8804 8.82518 10.8804H10.1749C10.3092 10.8804 10.4379 10.8271 10.5328 10.7322C10.6278 10.6373 10.6811 10.5085 10.6811 10.3743C10.6811 10.24 10.6278 10.1113 10.5328 10.0164C10.4379 9.92145 10.3092 9.86813 10.1749 9.86813H8.82518C8.69094 9.86813 8.5622 9.92145 8.46728 10.0164C8.37235 10.1113 8.31903 10.24 8.31903 10.3743Z" fill="#171717"/>
</svg>
