<svg width="26" height="26" viewBox="0 0 26 26" fill="none" xmlns="http://www.w3.org/2000/svg">
<path d="M23.2917 2.1665H2.70835C2.56469 2.1665 2.42692 2.22357 2.32534 2.32515C2.22376 2.42674 2.16669 2.56451 2.16669 2.70817V23.2915C2.16669 23.4352 2.22376 23.5729 2.32534 23.6745C2.42692 23.7761 2.56469 23.8332 2.70835 23.8332H23.2917C23.4353 23.8332 23.5731 23.7761 23.6747 23.6745C23.7763 23.5729 23.8334 23.4352 23.8334 23.2915V2.70817C23.8334 2.56451 23.7763 2.42674 23.6747 2.32515C23.5731 2.22357 23.4353 2.1665 23.2917 2.1665ZM9.20835 22.7498H3.25002V3.24984H9.20835V22.7498ZM22.75 22.7498H10.2917V13.5415H22.75V22.7498ZM22.75 12.4582H10.2917V3.24984H22.75V12.4582Z" fill="#171717"/>
</svg>
