<svg width="20" height="16" viewBox="0 0 20 16" fill="none" xmlns="http://www.w3.org/2000/svg">
<path d="M8.0284 0.236336L-3.51414e-07 7.96058L8.0284 15.6848C8.10091 15.776 8.19303 15.8511 8.29852 15.9052C8.40402 15.9593 8.52042 15.9911 8.63986 15.9984C8.7593 16.0057 8.87898 15.9883 8.9908 15.9475C9.10262 15.9067 9.20397 15.8433 9.28799 15.7617C9.37201 15.6802 9.43674 15.5823 9.47779 15.4747C9.51884 15.3671 9.53526 15.2523 9.52594 15.1381C9.51661 15.0239 9.48176 14.9129 9.42374 14.8127C9.36572 14.7126 9.28588 14.6255 9.18964 14.5574L3.18296 8.76019L19.1646 8.76019C19.3861 8.76019 19.5986 8.67595 19.7553 8.52599C19.912 8.37604 20 8.17265 20 7.96058C20 7.74851 19.912 7.54513 19.7553 7.39517C19.5986 7.24521 19.3861 7.16097 19.1646 7.16097L3.18296 7.16097L9.18964 1.36379C9.34584 1.21322 9.43316 1.00942 9.43238 0.797234C9.43159 0.585046 9.34278 0.381846 9.18546 0.232337C9.02815 0.0828272 8.81523 -0.000744251 8.59354 5.34641e-06C8.37185 0.000754944 8.15955 0.0857664 8.00334 0.236336L8.0284 0.236336Z" fill="black"/>
</svg>
