<svg width="38" height="38" viewBox="0 0 38 38" fill="none" xmlns="http://www.w3.org/2000/svg">
<circle cx="19" cy="19" r="18.5" fill="white" stroke="#DADADA"/>
<path d="M20.1116 24.95C19.9986 25.1504 19.8365 25.3167 19.6414 25.4323C19.4463 25.5478 19.2251 25.6087 19 25.6087C18.7749 25.6087 18.5537 25.5478 18.3586 25.4323C18.1636 25.3167 18.0014 25.1504 17.8885 24.95M22.8551 16.3572C22.8551 15.3054 22.4489 14.2966 21.726 13.5529C21.003 12.8091 20.0224 12.3913 19 12.3913C17.9776 12.3913 16.997 12.8091 16.2741 13.5529C15.5511 14.2966 15.1449 15.3054 15.1449 16.3572C15.1449 20.9841 13.2174 22.3061 13.2174 22.3061H24.7826C24.7826 22.3061 22.8551 20.9841 22.8551 16.3572Z" stroke="#8F8F8F" stroke-width="1.4" stroke-linecap="round" stroke-linejoin="round"/>
</svg>
