<svg width="14" height="15" viewBox="0 0 14 15" fill="none" xmlns="http://www.w3.org/2000/svg">
<g clip-path="url(#clip0_468_1168)">
<path d="M7.90004 7.16H5.29004M6.24004 4.42V3.5M7.78004 4.42V3.5M6.24004 11.5V10.4M7.78004 11.5V10.4M7.88004 7.16C8.06163 7.16265 8.24193 7.12917 8.41046 7.06151C8.57899 6.99385 8.73239 6.89336 8.86173 6.76588C8.99107 6.6384 9.09378 6.48647 9.16387 6.31894C9.23397 6.1514 9.27006 5.97161 9.27004 5.79C9.27004 5.42665 9.1257 5.07819 8.86878 4.82126C8.61185 4.56434 8.26339 4.42 7.90004 4.42H5.79004C5.65743 4.42 5.53025 4.47268 5.43649 4.56645C5.34272 4.66021 5.29004 4.78739 5.29004 4.92V9.92C5.29004 10.0526 5.34272 10.1798 5.43649 10.2736C5.53025 10.3673 5.65743 10.42 5.79004 10.42H7.88004C8.30969 10.42 8.72174 10.2493 9.02555 9.94551C9.32936 9.6417 9.50004 9.22965 9.50004 8.8C9.50004 8.37035 9.32936 7.9583 9.02555 7.65449C8.72174 7.35068 8.30969 7.18 7.88004 7.18V7.16Z" stroke="black" stroke-linecap="round" stroke-linejoin="round"/>
<path d="M7 14C10.5899 14 13.5 11.0899 13.5 7.5C13.5 3.91015 10.5899 1 7 1C3.41015 1 0.5 3.91015 0.5 7.5C0.5 11.0899 3.41015 14 7 14Z" stroke="black" stroke-linecap="round" stroke-linejoin="round"/>
</g>
<defs>
<clipPath id="clip0_468_1168">
<rect width="14" height="14" fill="white" transform="translate(0 0.5)"/>
</clipPath>
</defs>
</svg>
