<svg width="44" height="45" viewBox="0 0 44 45" fill="none" xmlns="http://www.w3.org/2000/svg">
<path d="M9.16667 39H34.8333C36.8584 39 38.5 37.3584 38.5 35.3333V9.66667C38.5 7.64162 36.8584 6 34.8333 6H9.16667C7.14162 6 5.5 7.64162 5.5 9.66667V35.3333C5.5 37.3584 7.14162 39 9.16667 39ZM9.16667 39L29.3333 18.8333L38.5 28M18.3333 16.0833C18.3333 17.6021 17.1021 18.8333 15.5833 18.8333C14.0646 18.8333 12.8333 17.6021 12.8333 16.0833C12.8333 14.5646 14.0646 13.3333 15.5833 13.3333C17.1021 13.3333 18.3333 14.5646 18.3333 16.0833Z" stroke="#DADADA" stroke-width="2" stroke-linecap="round" stroke-linejoin="round"/>
</svg>
