<svg width="84" height="34" viewBox="0 0 84 34" fill="none" xmlns="http://www.w3.org/2000/svg">
<path d="M40.7136 6.04159C40.0905 5.16908 39.2387 4.43623 38.2511 3.82687L38.1059 3.73477C33.0932 0.656881 26.7987 0.301072 26.7987 0.301072C26.7987 0.301072 19.5401 -0.44166 12.7691 0.406029C14.9226 0.207398 21.6997 0.244046 28.3546 7.25105C36.2119 15.5242 28.2151 20.4965 22.8846 19.6037C29.6575 20.9081 37.2095 20.3812 40.661 13.556C42.2288 10.4556 42.0357 8.09506 40.8874 6.3022C42.7356 8.2648 43.3898 11.028 41.4466 14.8884C35.2426 27.2136 16.2544 19.8134 10.8681 16.95C5.48175 14.0866 -0.353439 7.7721 4.30349 3.76339C4.88631 3.26172 5.67308 2.84305 6.60346 2.49438C4.63152 3.18061 2.97286 4.12392 1.9128 5.41081C-3.33557 11.7825 3.24071 21.0062 9.31117 25.5574C15.3816 30.1086 36.7816 41.8711 43.7736 22.2806C46.6704 14.1641 44.4035 9.14318 40.7136 6.04159Z" fill="#7A5AF8"/>
<path d="M9.35245 14.6C9.15585 14.3054 8.54114 13.0733 10.3725 11.1487C12.4323 8.98408 17.591 6.59545 23.7845 7.19837C23.7845 7.19837 26.3254 7.37151 27.4681 8.78757C27.2531 8.50278 27.0213 8.21379 26.7707 7.92045C20.8657 1.00818 14.8523 0.97202 12.9415 1.16798C12.7335 1.19693 12.526 1.22777 12.3193 1.26059C10.7437 1.51068 9.21502 1.87558 7.85929 2.39766C7.06269 2.72798 6.38909 3.12467 5.89013 3.59997C2.52719 6.80345 5.55492 11.5611 9.35245 14.6Z" fill="#7A5AF8"/>
<path d="M55.1409 21.0792C52.0989 21.0792 50.0909 18.8828 50.0909 15.5792C50.0909 12.2757 52.0989 10.0792 55.1409 10.0792C58.1829 10.0792 60.1908 12.2757 60.1908 15.5792C60.1908 18.8828 58.1829 21.0792 55.1409 21.0792ZM55.1409 18.2221C56.4596 18.2221 57.3437 17.1685 57.3437 15.5792C57.3437 13.99 56.4596 12.9364 55.1409 12.9364C53.8222 12.9364 52.9381 13.99 52.9381 15.5792C52.9381 17.1685 53.8222 18.2221 55.1409 18.2221ZM60.8412 20.9007C60.1669 20.9007 59.7623 20.4185 59.7623 19.615C59.7623 18.8292 60.1669 18.3292 60.8112 18.3292V14.7221C60.1669 14.7221 59.7623 14.2221 59.7623 13.4364C59.7623 12.6328 60.1669 12.1507 60.8412 12.1507H62.0849C62.8642 12.1507 63.2837 12.6685 63.5235 13.9007C64.2578 12.4721 64.9471 11.9721 66.1759 11.9721C67.7643 11.9721 68.6334 13.0614 68.6334 15.0435V18.3292C69.2778 18.3292 69.6824 18.8292 69.6824 19.615C69.6824 20.4185 69.2778 20.9007 68.6034 20.9007H66.2508C65.5765 20.9007 65.1719 20.4185 65.1719 19.615C65.1719 18.8828 65.5165 18.4007 66.0859 18.3292V16.1507C66.0859 15.1507 65.6364 14.5435 64.8122 14.5435C63.8532 14.5435 63.3587 15.3471 63.3587 16.6864V18.3292C63.9281 18.4007 64.2728 18.8828 64.2728 19.615C64.2728 20.4185 63.8682 20.9007 63.1938 20.9007H60.8412ZM70.1829 20.9007C69.5085 20.9007 69.1039 20.4185 69.1039 19.615C69.1039 18.8292 69.4935 18.3471 70.1529 18.3292V11.6864C69.4935 11.6685 69.1039 11.1864 69.1039 10.4007C69.1039 9.5971 69.5085 9.11496 70.1829 9.11496H71.4266C72.2208 9.11496 72.7003 9.68639 72.7003 10.6328V18.3292C73.3597 18.3471 73.7493 18.8292 73.7493 19.615C73.7493 20.4185 73.3447 20.9007 72.6704 20.9007H70.1829ZM76.2128 24.115C74.6544 24.115 73.6953 23.4007 73.6953 22.3292C73.6953 21.5971 74.055 21.1507 74.6394 21.1507C74.8492 21.1507 74.9391 21.1685 75.2838 21.3292C75.5685 21.4542 75.9131 21.5435 76.1529 21.5435C76.5874 21.5435 76.9021 21.2935 76.9021 20.7578C76.9021 20.5614 76.8272 20.365 76.7073 20.115L74.07 14.7221C73.4556 14.6864 73.0959 14.2221 73.0959 13.4364C73.0959 12.6328 73.4855 12.1507 74.1449 12.1507H76.7373C77.3966 12.1507 77.7862 12.6328 77.7862 13.4364C77.7862 14.115 77.5165 14.5614 77.007 14.7042L78.4905 18.2221L79.6294 14.7221C79.075 14.5971 78.7753 14.1685 78.7753 13.4364C78.7753 12.6328 79.1649 12.1507 79.8242 12.1507H82.042C82.7013 12.1507 83.0909 12.6328 83.0909 13.4364C83.0909 14.2042 82.7313 14.6685 82.1319 14.7221L79.7193 20.9364C78.7303 23.4364 77.9661 24.115 76.2128 24.115Z" fill="#0A2540"/>
</svg>
