<svg width="18" height="20" viewBox="0 0 18 20" fill="none" xmlns="http://www.w3.org/2000/svg">
<path d="M16.1796 5.647C15.9786 5.42713 15.7489 5.2354 15.4966 5.077C15.6116 4.46296 15.5856 3.8308 15.4205 3.22828C15.2554 2.62577 14.9556 2.06864 14.5436 1.599C13.6056 0.539 11.9676 0 9.67461 0H3.79061C3.13061 0.002 2.57061 0.481 2.46661 1.132L0.0136099 16.722C-0.0103542 16.8663 -0.00260352 17.014 0.0363229 17.155C0.0752492 17.296 0.144417 17.4268 0.239016 17.5383C0.333616 17.6499 0.451376 17.7395 0.584107 17.8009C0.716839 17.8623 0.861356 17.8941 1.00761 17.894H4.05561L3.89561 18.908C3.87442 19.0426 3.88257 19.1801 3.91952 19.3113C3.95646 19.4424 4.02133 19.564 4.10966 19.6677C4.19799 19.7714 4.30771 19.8548 4.43128 19.9122C4.55486 19.9695 4.68937 19.9995 4.82561 20H7.88961C8.18237 20.0012 8.46596 19.8979 8.6894 19.7088C8.91284 19.5196 9.06149 19.2569 9.10861 18.968L9.71461 15.141L9.75561 14.924C9.76379 14.8678 9.79195 14.8165 9.83493 14.7794C9.87791 14.7423 9.93283 14.7219 9.98961 14.722H10.4476C14.0766 14.722 16.2506 13.002 16.9096 9.61C17.106 8.93839 17.1424 8.23011 17.0158 7.54191C16.8892 6.85372 16.6032 6.20474 16.1806 5.647H16.1796ZM4.41661 15.587L4.21061 16.893L1.00061 16.883L3.45561 1.283C3.46869 1.2037 3.50959 1.13166 3.57098 1.0798C3.63238 1.02793 3.71024 0.999642 3.79061 1H9.67461C11.6696 1 13.0546 1.424 13.7916 2.26C14.4936 3.085 14.7466 4.202 14.4686 5.25H14.4706C14.4538 5.35898 14.4352 5.46766 14.4146 5.576L14.4136 5.579C13.7636 8.926 11.6926 10.554 8.08061 10.554H6.35261C6.03253 10.5533 5.72285 10.6676 5.48001 10.8761C5.23716 11.0847 5.07732 11.3735 5.02961 11.69L4.41661 15.586V15.587ZM15.9266 9.419C15.3636 12.315 13.5716 13.722 10.4466 13.722H9.98861C9.69574 13.7204 9.41194 13.8235 9.18841 14.0127C8.96488 14.202 8.81635 14.4649 8.76961 14.754L8.15461 18.627L8.12261 18.798C8.11421 18.8543 8.08584 18.9056 8.0427 18.9427C7.99955 18.9798 7.9445 19.0001 7.88761 19L4.88261 19.065L5.48761 15.216L6.02161 11.846H6.01761V11.844C6.02956 11.7636 6.06993 11.6901 6.13138 11.6369C6.19284 11.5837 6.27132 11.5543 6.35261 11.554H8.08061C12.0406 11.554 14.4706 9.747 15.3076 6.179C15.3496 6.22 15.3896 6.262 15.4276 6.305C16.0776 7.206 16.2626 8.361 15.9266 9.419Z" fill="#171717"/>
</svg>
