<svg width="28" height="20" viewBox="0 0 28 20" fill="none" xmlns="http://www.w3.org/2000/svg">
<path d="M3 0C1.355 0 0 1.355 0 3V17C0 18.645 1.355 20 3 20H25C26.645 20 28 18.645 28 17V3C28 1.355 26.645 0 25 0H3ZM3 2H25C25.566 2 26 2.434 26 3V17C26 17.566 25.566 18 25 18H3C2.434 18 2 17.566 2 17V3C2 2.434 2.434 2 3 2ZM14.5 5.438C14.3889 5.4368 14.2787 5.45777 14.1758 5.4997C14.073 5.54163 13.9795 5.60366 13.9009 5.68217C13.8223 5.76067 13.7601 5.85408 13.7181 5.9569C13.676 6.05973 13.6549 6.16991 13.656 6.281C13.656 6.75 14.027 7.125 14.5 7.125C14.611 7.12553 14.721 7.10406 14.8236 7.06183C14.9262 7.01961 15.0195 6.95746 15.098 6.87898C15.1765 6.8005 15.2386 6.70725 15.2808 6.60461C15.3231 6.50197 15.3445 6.39198 15.344 6.281C15.3448 6.16994 15.3235 6.05983 15.2814 5.95707C15.2392 5.85431 15.1771 5.76095 15.0986 5.68242C15.02 5.60389 14.9267 5.54175 14.8239 5.49962C14.7212 5.45749 14.6111 5.4372 14.5 5.438ZM9.062 6.188L7.688 6.406L7.5 7.625L7 7.719L6.812 8.844H7.5V11.188C7.5 11.797 7.652 12.211 7.969 12.468C8.234 12.684 8.617 12.781 9.156 12.781C9.57 12.781 9.824 12.703 10 12.656V11.406C9.902 11.434 9.68 11.469 9.531 11.469C9.215 11.469 9.062 11.309 9.062 10.937V8.844H9.906L10.094 7.625H9.063L9.062 6.188ZM4.907 7.53C4.36 7.53 3.887 7.67 3.564 7.936C3.224 8.214 3.064 8.636 3.064 9.124C3.064 10.007 3.591 10.37 4.47 10.687C5.036 10.886 5.22 11.027 5.22 11.249C5.22 11.464 5.052 11.593 4.72 11.593C4.31 11.593 3.63 11.386 3.188 11.124L3 12.344C3.379 12.559 4.086 12.781 4.813 12.781C5.391 12.781 5.863 12.668 6.188 12.406C6.551 12.121 6.75 11.672 6.75 11.125C6.75 10.223 6.203 9.848 5.312 9.531C4.84 9.355 4.562 9.246 4.562 9.031C4.562 8.848 4.703 8.719 4.969 8.719C5.457 8.719 5.969 8.926 6.312 9.094L6.5 7.875C6.00082 7.64334 5.45629 7.52583 4.906 7.531L4.907 7.53ZM18.72 7.53C18.251 7.53 17.821 7.745 17.438 8.155L17.376 7.624H15.938V14.562L17.563 14.28V12.687C17.81 12.765 18.056 12.78 18.283 12.78C18.685 12.78 19.267 12.679 19.72 12.187C20.153 11.714 20.376 10.999 20.376 10.03C20.376 9.175 20.231 8.507 19.907 8.093C19.622 7.722 19.227 7.53 18.72 7.53ZM22.938 7.53C21.568 7.53 20.72 8.561 20.72 10.186C20.72 11.096 20.927 11.784 21.376 12.218C21.778 12.608 22.38 12.78 23.126 12.78C23.814 12.78 24.442 12.64 24.845 12.374L24.657 11.249C24.235 11.4778 23.762 11.5961 23.282 11.593C22.97 11.593 22.751 11.511 22.595 11.374C22.427 11.229 22.345 11.019 22.313 10.686H24.97C24.978 10.608 25.001 10.241 25.001 10.124C25.001 9.319 24.813 8.667 24.47 8.218C24.118 7.765 23.606 7.53 22.938 7.53ZM13 7.562C12.7857 7.55603 12.5753 7.61992 12.4005 7.74402C12.2257 7.86813 12.096 8.04572 12.031 8.25L11.937 7.625H10.531V12.688H12.156V9.406C12.356 9.16 12.641 9.062 13.031 9.062C13.117 9.062 13.203 9.074 13.312 9.094V7.594C13.2097 7.57096 13.1049 7.55955 13 7.562ZM13.688 7.625V12.688H15.312V7.625H13.688ZM22.906 8.625C23.27 8.625 23.473 8.973 23.5 9.688H22.312C22.359 8.965 22.535 8.625 22.906 8.625ZM18.156 8.781C18.566 8.781 18.781 9.199 18.781 10.062C18.781 10.555 18.711 10.957 18.563 11.219C18.433 11.465 18.234 11.594 18 11.594C17.8486 11.5982 17.6984 11.5659 17.562 11.5V9.094C17.836 8.809 18.066 8.781 18.156 8.781Z" fill="black"/>
</svg>
